<?xml version="1.0" encoding="UTF-8"?>
<svg id="Layer_1" data-name="Layer 1" xmlns="http://www.w3.org/2000/svg" viewBox="0 0 905.2 339.42">
  <defs>
    <style>
      .cls-1 {
        fill: none;
      }

      .cls-2 {
        fill: #f58320;
      }

      .cls-3 {
        fill: #f9a11f;
      }

      .cls-4 {
        fill: #03a8cb;
      }

      .cls-5 {
        fill: #ee4457;
      }

      .cls-6 {
        fill: #ed2038;
      }

      .cls-7 {
        fill: #ed1f38;
      }

      .cls-8 {
        fill: #ed1e3b;
      }

      .cls-9 {
        fill: #f79422;
      }

      .cls-10 {
        fill: #f79a22;
      }

      .cls-11 {
        fill: #f49926;
      }

      .cls-12 {
        fill: #ea1d3d;
      }

      .cls-13 {
        fill: #ec1d45;
      }

      .cls-14 {
        fill: #f37428;
      }

      .cls-15 {
        fill: #f3702b;
      }

      .cls-16 {
        fill: #ef5a2f;
      }

      .cls-17 {
        fill: #fcb315;
      }

      .cls-18 {
        fill: #ef4137;
      }

      .cls-19 {
        fill: #8e1732;
      }

      .cls-20 {
        fill: #dc3626;
      }

      .cls-21 {
        fill: #d81e44;
      }

      .cls-22 {
        fill: #118ca1;
      }

      .cls-23 {
        fill: #178fa5;
      }

      .cls-24 {
        fill: #15b8d4;
      }

      .cls-25 {
        fill: #1b9cb2;
      }

      .cls-26 {
        fill: #1aa8b0;
      }

      .cls-27 {
        fill: #17adb7;
      }

      .cls-28 {
        fill: #18abb5;
      }

      .cls-29 {
        fill: #59caea;
      }

      .cls-30 {
        fill: #3ac6ee;
      }
    </style>
  </defs>
  <g>
    <path class="cls-22" d="M498.91,134.2v23.82h-13.93V90.42h26.37c5.08,0,9.54,.93,13.39,2.79,3.85,1.86,6.82,4.5,8.89,7.92,2.07,3.42,3.11,7.31,3.11,11.68,0,6.62-2.27,11.85-6.8,15.67-4.53,3.82-10.81,5.73-18.83,5.73h-12.21Zm0-11.28h12.44c3.68,0,6.49-.87,8.43-2.6,1.93-1.73,2.9-4.21,2.9-7.43s-.97-5.99-2.92-8.03c-1.95-2.04-4.64-3.1-8.08-3.16h-12.77v21.22Z"/>
    <path class="cls-22" d="M571.33,133.27h-11.1v24.75h-13.93V90.42h25.12c7.99,0,14.14,1.78,18.48,5.34,4.33,3.56,6.5,8.59,6.5,15.09,0,4.61-1,8.46-3,11.54-2,3.08-5.02,5.53-9.08,7.36l14.62,27.62v.65h-14.95l-12.67-24.75Zm-11.1-11.28h11.24c3.5,0,6.21-.89,8.12-2.67,1.92-1.78,2.88-4.23,2.88-7.36s-.91-5.69-2.72-7.52c-1.81-1.83-4.59-2.74-8.33-2.74h-11.19v20.29Z"/>
    <path class="cls-22" d="M647.66,128.72h-26.74v18.11h31.39v11.19h-45.31V90.42h45.22v11.28h-31.29v16.11h26.74v10.91Z"/>
    <path class="cls-22" d="M678.67,90.42l17.36,49.03,17.27-49.03h18.29v67.6h-13.98v-18.48l1.39-31.89-18.25,50.37h-9.56l-18.2-50.33,1.39,31.85v18.48h-13.93V90.42h18.2Z"/>
    <path class="cls-22" d="M758.58,158.02h-13.93V90.42h13.93v67.6Z"/>
    <path class="cls-22" d="M822.65,90.42v44.52c0,7.4-2.31,13.25-6.94,17.55-4.63,4.3-10.95,6.45-18.97,6.45s-14.16-2.09-18.8-6.27c-4.64-4.18-7.01-9.92-7.1-17.23v-45.03h13.93v44.62c0,4.43,1.06,7.65,3.18,9.68,2.12,2.03,5.05,3.04,8.8,3.04,7.83,0,11.81-4.12,11.93-12.35v-44.99h13.97Z"/>
    <path class="cls-22" d="M852.27,90.42l17.36,49.03,17.27-49.03h18.29v67.6h-13.98v-18.48l1.39-31.89-18.25,50.37h-9.56l-18.2-50.33,1.39,31.85v18.48h-13.93V90.42h18.2Z"/>
  </g>
  <g>
    <path class="cls-21" d="M528.85,234.14h-24.42l-4.64,13.93h-14.81l25.16-67.6h12.91l25.3,67.6h-14.81l-4.69-13.93Zm-20.66-11.28h16.9l-8.5-25.3-8.4,25.3Z"/>
    <path class="cls-21" d="M607.18,239.53c-2.51,3-6.05,5.33-10.63,6.99-4.58,1.66-9.66,2.48-15.23,2.48-5.85,0-10.98-1.28-15.39-3.83-4.41-2.55-7.82-6.26-10.21-11.12-2.4-4.86-3.63-10.57-3.69-17.13v-4.6c0-6.75,1.14-12.59,3.41-17.53,2.28-4.94,5.56-8.71,9.84-11.33,4.29-2.62,9.31-3.92,15.07-3.92,8.02,0,14.28,1.91,18.8,5.73,4.52,3.82,7.2,9.39,8.03,16.69h-13.56c-.62-3.87-1.99-6.7-4.11-8.5-2.12-1.8-5.04-2.69-8.75-2.69-4.74,0-8.34,1.78-10.82,5.34-2.48,3.56-3.73,8.85-3.76,15.88v4.32c0,7.09,1.35,12.44,4.04,16.06,2.69,3.62,6.64,5.43,11.84,5.43s8.96-1.11,11.19-3.34v-11.65h-12.68v-10.26h26.6v26.97Z"/>
    <path class="cls-21" d="M659.13,218.77h-26.74v18.11h31.39v11.19h-45.31v-67.6h45.22v11.28h-31.29v16.11h26.74v10.91Z"/>
    <path class="cls-21" d="M726.91,248.07h-13.93l-27.11-44.48v44.48h-13.93v-67.6h13.93l27.16,44.57v-44.57h13.88v67.6Z"/>
    <path class="cls-21" d="M792.14,225.55c-.53,7.27-3.21,13-8.06,17.18-4.84,4.18-11.23,6.27-19.15,6.27-8.67,0-15.48-2.92-20.45-8.75-4.97-5.83-7.45-13.84-7.45-24.03v-4.13c0-6.5,1.15-12.23,3.44-17.18s5.56-8.75,9.82-11.4c4.26-2.65,9.2-3.97,14.83-3.97,7.8,0,14.08,2.09,18.85,6.27,4.77,4.18,7.52,10.04,8.26,17.6h-13.93c-.34-4.36-1.56-7.53-3.64-9.49-2.09-1.97-5.27-2.95-9.54-2.95-4.64,0-8.12,1.66-10.42,4.99-2.31,3.33-3.49,8.49-3.55,15.48v5.11c0,7.31,1.11,12.64,3.32,16.02,2.21,3.37,5.7,5.06,10.47,5.06,4.3,0,7.51-.98,9.63-2.95,2.12-1.97,3.33-5.01,3.64-9.12h13.93Z"/>
    <path class="cls-21" d="M824.6,210.93l14.07-30.46h15.23l-22.19,43.08v24.51h-14.16v-24.51l-22.19-43.08h15.27l13.98,30.46Z"/>
  </g>
  <g>
    <path class="cls-1" d="M358.85,170.24l2.49,.99,1.49-3.09c-1.3,.7-2.63,1.4-3.97,2.1Z"/>
    <path class="cls-19" d="M431.96,120.25l-9.17,.24c-6.6,5.14-15.22,11.94-19.91,15.65l.28,.2c.61,.44,1.42,.48,2.07,.1l24.71-14.38c.23-.13,.46,.16,.28,.35l-19.87,20.72c-.52,.54-.67,1.33-.4,2.03l8.88,22.38c.16,.41,.76,.38,.87-.05l12.71-46.66c.08-.3-.15-.59-.46-.58Z"/>
    <path class="cls-8" d="M383.83,121.51c-.44,.01-.61,.58-.26,.83l19.31,13.8c4.69-3.71,13.32-10.51,19.91-15.65l-38.96,1.02Z"/>
    <path class="cls-11" d="M124.14,127.83c-.15,.91-.29,1.8-.43,2.7l-5.1,.36,5.53-3.06Z"/>
    <path class="cls-23" d="M121.48,183.17c-24.41-2.86-45.89-7.32-63.64-11.98l60.77-40.3,3.53,12.1c-.31,3.09-.56,6.08-.74,8.93-.92,14.14-.41,25.14,.08,31.25Z"/>
    <path class="cls-10" d="M123.71,130.53c-.65,4.32-1.17,8.49-1.57,12.46l-3.53-12.1,5.1-.36Z"/>
    <path class="cls-29" d="M55.01,170.44c-18.39-4.96-32.53-10.04-41.44-13.58,3.59-21.82,7.72-46.95,10.13-61.85,2.39-4.86,5-9.6,7.82-14.18l23.48,89.61Z"/>
    <path class="cls-9" d="M167.99,25.19l-48.15-15.63c-30.67,10.78-57.31,30.12-77.05,55.15l109.13-15.69c4.65-8.01,9.97-15.99,16.07-23.83Z"/>
    <path class="cls-15" d="M151.92,49.02c-15.98,27.51-23.96,55.33-27.78,78.81l-5.53,3.06L36.26,73.56c2.08-3.02,4.26-5.97,6.52-8.85l109.13-15.69Z"/>
    <path class="cls-28" d="M118.61,130.89l-60.77,40.3c-.96-.25-1.9-.5-2.83-.75L31.53,80.82c1.52-2.46,3.1-4.88,4.74-7.26l82.35,57.33Z"/>
    <path class="cls-26" d="M7.31,152.21c-.07,.66-.13,1.33-.19,1.99,1.69,.73,3.85,1.63,6.45,2.66,3.59-21.82,7.72-46.95,10.13-61.85-8.63,17.57-14.31,36.85-16.39,57.2Z"/>
    <path class="cls-3" d="M190.39,.59c-4.71-.39-9.46-.59-14.27-.59-19.73,0-38.67,3.37-56.28,9.56l48.15,15.63c6.54-8.41,13.97-16.65,22.4-24.6Z"/>
    <path class="cls-3" d="M221.81,15.06V6.23c-7.89-2.2-16.01-3.85-24.32-4.89-4.48,4.28-9.51,9.29-14.76,15.14,15.17,0,28.08-.51,39.08-1.41Z"/>
    <path class="cls-2" d="M241.04,12.86c-6.23-2.58-12.65-4.8-19.22-6.63V15.06c7.2-.59,13.58-1.34,19.22-2.21Z"/>
    <path class="cls-15" d="M284.49,39.1l-62.1,34.36c-22.24,2.39-48.1,3.64-77.82,2.89,4.39-10.48,9.34-19.9,14.54-28.37l66.28-9.53c16.51-1.07,33.68-2.99,50.33-6.18,3,2.18,5.93,4.46,8.78,6.82Z"/>
    <path class="cls-10" d="M294.93,48.53l-10.33,13.59c-16.3,4.42-36.92,8.62-62.21,11.34l62.1-34.36c3.61,3,7.09,6.14,10.44,9.43Z"/>
    <path class="cls-11" d="M302.64,56.6c-2.48-2.78-5.05-5.47-7.71-8.07l-10.34,13.59c6.74-1.83,12.75-3.7,18.05-5.52Z"/>
    <path class="cls-11" d="M164.81,39.21c-1.92,2.8-3.82,5.73-5.7,8.78l66.28-9.53c-22.39,1.45-43.56,1.36-60.58,.75Z"/>
    <path class="cls-6" d="M257.55,129.9c-2.81,.51-5.71,1-8.69,1.47l-10.11-8.96,18.8,7.48Z"/>
    <path class="cls-16" d="M248.86,131.37c-4.93,.78-10.1,1.5-15.52,2.16l5.41-11.11,10.11,8.96Z"/>
    <path class="cls-17" d="M296.29,120.41c20.47-6.55,32.02-13.17,36.5-16.06-3.95-9.47-8.74-18.51-14.28-27.02-17.59,7.8-37.8,13.26-58.45,17.05l-21.31,28.03,57.54-2Z"/>
    <path class="cls-10" d="M260.06,94.39l-21.31,28.03-108.91,7.68c.29-2.01,.61-3.99,.94-5.95l39.24-21.71c25.93-.37,58.51-2.26,90.04-8.05Z"/>
    <path class="cls-20" d="M238.75,122.42l-5.41,11.11c-4.63,.56-9.45,1.06-14.45,1.51l19.85-12.63Z"/>
    <path class="cls-18" d="M257.55,129.9c15.42-2.8,28.26-6.13,38.74-9.49l-57.54,2,18.8,7.48Z"/>
    <path class="cls-14" d="M238.75,122.42l-19.85,12.63c-25.11,2.24-54.88,2.95-89.85,1.03,.24-2.02,.51-4.01,.8-5.98l108.91-7.68Z"/>
    <path class="cls-15" d="M170.03,102.44l-39.24,21.71c1.33-7.74,2.98-15.09,4.9-22.07,8.84,.31,20.67,.55,34.34,.35Z"/>
    <path class="cls-24" d="M216.48,164.93l-14.28,20.6c-20.68,1.22-40.3,.96-58.61-.31l51.81-18.54c6.78-.43,13.83-1,21.08-1.75Z"/>
    <path class="cls-25" d="M219.26,164.63l-6.97,20.19c-3.39,.28-6.76,.51-10.09,.71l14.28-20.6c.92-.1,1.85-.2,2.78-.3Z"/>
    <path class="cls-28" d="M195.4,166.69l-51.81,18.54c-1.08-.08-2.16-.15-3.24-.23l27.15-17.26c8.58-.1,17.95-.41,27.9-1.04Z"/>
    <path class="cls-27" d="M236.45,182.19c-8.18,1.12-16.24,1.99-24.16,2.63l6.97-20.19c2.14-.23,4.28-.49,6.45-.75l10.74,18.31Z"/>
    <path class="cls-10" d="M167.5,167.72l-27.15,17.26c-2.05-.16-4.08-.33-6.09-.5l-5.13-17.57c9.01,.49,22.29,1.01,38.37,.81Z"/>
    <path class="cls-18" d="M345.03,153.07c-.06-.57-.11-1.15-.18-1.72-.77-7.14-1.98-14.14-3.61-20.99-12.89,6.76-26.37,12.33-40.05,16.92l28.99,11.54c4.93-1.81,9.87-3.73,14.84-5.75Z"/>
    <path class="cls-13" d="M271.62,175.94c-11.95,2.62-23.68,4.68-35.17,6.25l-10.74-18.31c3.35-.42,6.73-.87,10.14-1.37l35.77,13.43Z"/>
    <path class="cls-16" d="M293.18,170.65c-7.25,1.97-14.45,3.73-21.56,5.3l-35.77-13.43c12.87-1.88,26.14-4.39,39.45-7.71l17.88,15.84Z"/>
    <path class="cls-7" d="M330.18,158.82c-12.49,4.59-24.84,8.51-37,11.82l-17.88-15.84c8.65-2.15,17.31-4.64,25.89-7.52l28.99,11.54Z"/>
    <path class="cls-23" d="M134.26,184.48c-2.24-.2-4.47-.41-6.67-.64-.31-5.84-.44-11.51-.42-17.04,.62,.04,1.28,.07,1.95,.11l5.13,17.57Z"/>
    <path class="cls-26" d="M6.54,163.2c-2.04-1.65-3.68-3.07-4.92-4.19-.66-.59-1.65,.14-1.27,.94,1.89,4.06,4.05,7.93,6.08,11.29,.06,6.91,.54,13.73,1.4,20.42,.95-5.73,2.38-14.39,4.02-24.39-2-1.47-3.77-2.84-5.31-4.08Z"/>
    <polygon class="cls-27" points="119.07 273.58 134.01 299.71 154.61 254.17 119.07 273.58"/>
    <path class="cls-22" d="M21.96,240.76c3.45,7.47,7.43,14.65,11.88,21.49l38.34-26.27-50.22,4.78Z"/>
    <path class="cls-16" d="M38.71,269.31c20.17,27.78,48.56,49.21,81.59,60.71l13.71-30.31-95.3-30.4Z"/>
    <path class="cls-10" d="M237.36,328.03c-2.25,.87-4.51,1.69-6.81,2.47l-60.96-19.44,53.18-36.2,14.59,53.18Z"/>
    <path class="cls-14" d="M135.22,334.45c13.1,3.24,26.8,4.97,40.9,4.97,19.04,0,37.34-3.14,54.43-8.92l-60.96-19.44-34.37,23.4Z"/>
    <path class="cls-20" d="M169.59,311.05l-34.37,23.4c-5.07-1.26-10.04-2.73-14.92-4.43l13.71-30.31,35.58,11.35Z"/>
    <path class="cls-13" d="M134.01,299.71l-95.3-30.39c-.13-.18-.26-.36-.39-.54l68.06,11.75,12.69-6.93,14.94,26.12Z"/>
    <path class="cls-22" d="M70.47,229.42l-58.96-18.29c2.58,10.28,6.09,20.18,10.45,29.62l50.22-4.78-1.72-6.55Z"/>
    <path class="cls-30" d="M119.07,273.58h0l35.54-19.42-118.56,11.38c.74,1.09,1.5,2.16,2.27,3.23l68.06,11.74,12.69-6.93Z"/>
    <path class="cls-24" d="M154.61,254.17l-118.56,11.37c-.75-1.09-1.48-2.19-2.2-3.29l38.34-26.27,82.43,18.19Z"/>
    <path class="cls-19" d="M412.06,136.66c.3-.23,0-.7-.34-.51-6.57,3.71-22.02,12.07-44.03,21.87l-4.87,10.12c25.15-13.5,42.45-26.21,49.24-31.47Z"/>
    <path class="cls-21" d="M358.85,170.24c-4.19,2.19-8.58,4.39-13.17,6.58l-26.27,17.08,9.93-20.24c5.72-2.12,11.22-4.25,16.47-6.37,.94-.38,1.86-.75,2.78-1.13l10.26,4.08Z"/>
    <path class="cls-8" d="M367.69,158.02c-5.91,2.63-12.29,5.36-19.1,8.14l10.26,4.08c1.35-.7,2.67-1.4,3.97-2.1l4.87-10.12Z"/>
    <path class="cls-23" d="M222.77,274.85l14.59,53.18c23.61-9.14,44.66-23.4,61.8-41.43l-76.05-11.98-.34,.23Z"/>
    <path class="cls-24" d="M275.82,238.74l-52.71,35.89,76.05,11.98c7.66-8.06,14.54-16.88,20.52-26.33l-14.73,1.74-29.13-23.27Z"/>
    <path class="cls-5" d="M304.94,262.01l14.73-1.74c9.22-14.58,16.27-30.66,20.72-47.79l-20.98-18.59-14.47,68.12Z"/>
    <path class="cls-12" d="M319.41,193.89l20.98,18.59c2.98-11.46,4.79-23.39,5.29-35.66l-26.27,17.07h0Z"/>
    <path class="cls-24" d="M187.18,207.19l-32.57,46.98-13.35-45.71c13.3,.57,27.56,.31,42.82-1,1.04-.09,2.07-.18,3.1-.28Z"/>
    <path class="cls-25" d="M205.27,205.15l-4.79,13.88-45.87,35.14,32.57-46.98c6.09-.57,12.12-1.25,18.09-2.03Z"/>
    <polygon class="cls-25" points="154.61 254.17 134.01 299.71 134.01 299.71 134.01 299.71 200.48 219.03 154.61 254.17"/>
    <polygon class="cls-24" points="200.48 219.03 134.01 299.71 169.59 311.05 222.77 274.85 222.69 274.56 200.48 219.03"/>
    <path class="cls-4" d="M154.61,254.17l-82.43-18.19-1.72-6.55,38.04-24.19c10.18,1.6,21.1,2.73,32.76,3.23l13.35,45.71Z"/>
    <path class="cls-16" d="M319.41,193.89l-23.58-8.86c3.39-1.04,6.72-2.11,10-3.18l13.58,12.04Z"/>
    <path class="cls-24" d="M108.5,205.24l-38.04,24.19-9.53-36.39c13.55,4.97,29.39,9.34,47.57,12.2Z"/>
    <polygon class="cls-11" points="222.77 274.85 223.1 274.62 222.69 274.56 222.77 274.85"/>
    <path class="cls-7" d="M329.34,173.65l-9.93,20.24-13.58-12.04c8.19-2.68,16.04-5.44,23.51-8.21Z"/>
    <path class="cls-29" d="M39.05,183.65l-29.35,19.46c-.75-3.77-1.38-7.59-1.88-11.45,.95-5.73,2.38-14.39,4.02-24.39,6.55,4.8,15.59,10.62,27.2,16.38Z"/>
    <path class="cls-13" d="M319.41,193.89l-55.25,35.53-18.36-31.29c17.59-3.76,34.36-8.26,50.03-13.1l23.58,8.86Z"/>
    <path class="cls-4" d="M70.47,229.42l-58.96-18.29c-.67-2.65-1.27-5.32-1.81-8.02l29.35-19.46c6.49,3.22,13.78,6.41,21.88,9.38l9.53,36.39Z"/>
    <path class="cls-27" d="M275.82,238.74l-52.72,35.88-.42-.06-22.2-55.52,4.79-13.88c13.89-1.83,27.44-4.22,40.53-7.02l18.36,31.29,11.66,9.31Z"/>
    <polygon class="cls-21" points="264.16 229.42 275.82 238.74 275.82 238.74 275.82 238.74 304.94 262.01 319.41 193.89 319.41 193.89 264.16 229.42"/>
  </g>
</svg>